<svg height='300px' width='300px'  fill="#000000" xmlns="http://www.w3.org/2000/svg" xmlns:xlink="http://www.w3.org/1999/xlink" version="1.1" x="0px" y="0px" viewBox="0 0 100 100" enable-background="new 0 0 100 100" xml:space="preserve"><path d="M67,13H27c-2.2,0-4,1.8-4,4v4h-4c-2.2,0-4,1.8-4,4v60c0,2.2,1.8,4,4,4h40c2.2,0,4-1.8,4-4v-4h4c2.2,0,4-1.8,4-4V17  C71,14.8,69.2,13,67,13z M59,85H19V25h4v52c0,2.2,1.8,4,4,4h32V85z M67,77H27V17h40V77z M40,24h-8v-2h8V24z M62,24H43v-2h19V24z   M62,30H43v-2h19V30z M62,36H43v-2h19V36z M62,42H43v-2h19V42z M62,48H43v-2h19V48z M62,54H43v-2h19V54z M62,60H43v-2h19V60z M62,66  H43v-2h19V66z M62,72H43v-2h19V72z M40,30h-8v-2h8V30z M40,42h-8v-2h8V42z M40,48h-8v-2h8V48z M40,54h-8v-2h8V54z M40,66h-8v-2h8V66  z M40,72h-8v-2h8V72z M83,13h-4c-2.2,0-4,1.8-4,4v57c0,0.3,0,1,0,1l6,14l6-14c0,0,0-0.7,0-1V17C87,14.8,85.2,13,83,13z M83,17v5h-4  v-5H83z M81,74h-2V24h4v50H81z"></path></svg>